<svg width="209" height="209" viewBox="0 0 209 209" fill="none" xmlns="http://www.w3.org/2000/svg">
<path opacity="0.2" fill-rule="evenodd" clip-rule="evenodd" d="M31.33 95.314C36.9417 89.7128 41.2575 78.9911 41.1008 71.07C41.0221 67.3301 41.7019 63.6131 43.0992 60.1431C44.4965 56.6732 46.5824 53.5223 49.2309 50.8806C51.9745 48.1299 55.2663 45.9872 58.8923 44.5919C62.5183 43.1966 66.3973 42.5799 70.2772 42.7819C77.7385 43.1581 87.1644 39.5424 92.4312 34.2547C97.6433 29.0475 104.71 26.1226 112.077 26.1226C119.445 26.1226 126.511 29.0475 131.723 34.2547C137 39.5319 146.416 43.1581 153.877 42.7819C157.759 42.5784 161.64 43.1944 165.268 44.5897C168.896 45.9851 172.189 48.1285 174.934 50.8806C177.582 53.5244 179.666 56.6774 181.062 60.1492C182.458 63.621 183.135 67.3396 183.054 71.0805C182.897 78.9911 187.234 89.7233 192.824 95.3245C198.031 100.551 200.95 107.632 200.938 115.01C200.926 122.387 197.985 129.459 192.762 134.669C187.244 140.186 183.21 149.696 183.064 157.492C182.928 164.665 180.014 171.506 174.934 176.573C170.065 181.452 163.552 184.34 156.667 184.672C148.401 185.09 137.575 189.897 131.723 195.749C126.511 200.956 119.445 203.881 112.077 203.881C104.71 203.881 97.6433 200.956 92.4312 195.749C86.5792 189.897 75.7634 185.09 67.4975 184.672C60.6129 184.34 54.0997 181.452 49.2309 176.573C44.1562 171.511 41.2419 164.679 41.1008 157.512C40.944 149.696 36.8581 140.124 31.33 134.596C26.126 129.384 23.2031 122.32 23.2031 114.955C23.2031 107.59 26.126 100.526 31.33 95.314Z" fill="#673E2C"/>
<path fill-rule="evenodd" clip-rule="evenodd" d="M40.9393 42.6044C39.2865 44.2512 37.9851 46.2163 37.1139 48.3808C36.2428 50.5452 35.82 52.864 35.8711 55.1966C35.9756 60.9441 34.5126 67.026 32.3912 72.2928C30.2699 77.5701 27.1035 82.9727 23.0489 87.0378C19.804 90.2898 17.9817 94.6963 17.9817 99.2904C17.9817 103.884 19.804 108.291 23.0489 111.543C30.4684 118.973 35.6516 131.116 35.8711 141.629C35.9536 146.013 37.6998 150.203 40.7558 153.348C43.8119 156.493 47.9493 158.359 52.3298 158.568C58.0773 158.85 64.1279 160.595 69.4365 162.957C74.7346 165.308 80.085 168.621 84.1501 172.686C87.4022 175.931 91.8086 177.753 96.4027 177.753C100.997 177.753 105.403 175.931 108.655 172.686C112.72 168.621 118.06 165.308 123.369 162.947C128.678 160.595 134.728 158.85 140.476 158.568C144.86 158.362 149.002 156.493 152.059 153.343C155.116 150.193 156.86 145.997 156.934 141.608C157.143 131.137 162.253 119.046 169.683 111.616C171.302 110.007 172.588 108.095 173.468 105.989C174.348 103.883 174.804 101.624 174.811 99.3421C174.818 97.0597 174.375 94.7984 173.507 92.6872C172.64 90.576 171.366 88.6563 169.756 87.0378C165.702 82.9832 162.546 77.5805 160.414 72.3033C158.282 67.026 156.819 60.9441 156.934 55.1966C156.984 52.8632 156.56 50.544 155.687 48.3795C154.814 46.215 153.51 44.2503 151.856 42.6044C150.146 40.8862 148.094 39.5477 145.832 38.6762C143.571 37.8047 141.151 37.4198 138.73 37.5466C128.322 38.0691 116.023 33.3457 108.655 25.9784C105.403 22.7335 100.997 20.9111 96.4027 20.9111C91.8086 20.9111 87.4022 22.7335 84.1501 25.9784C76.7828 33.3457 64.4832 38.0691 54.075 37.5466C51.6529 37.4183 49.231 37.8025 46.9675 38.674C44.7041 39.5456 42.6499 40.8849 40.9393 42.6044ZM25.4211 55.3847C25.5778 63.3058 21.262 74.038 15.6503 79.6392C10.4463 84.8509 7.52344 91.9149 7.52344 99.2799C7.52344 106.645 10.4463 113.709 15.6503 118.921C21.1888 124.449 25.2643 134.021 25.4211 141.827C25.5674 148.745 28.2739 155.621 33.5512 160.898C38.42 165.777 44.9332 168.665 51.8178 168.997C60.0837 169.415 70.9099 174.212 76.7619 180.074C81.9737 185.278 89.0377 188.201 96.4027 188.201C103.768 188.201 110.832 185.278 116.043 180.074C121.895 174.212 132.722 169.415 140.988 168.997C147.872 168.665 154.385 165.777 159.254 160.898C164.33 155.83 167.241 148.989 167.374 141.817C167.531 134.011 171.554 124.511 177.082 118.994C182.309 113.783 185.252 106.71 185.264 99.3295C185.276 91.9491 182.355 84.8663 177.145 79.6392C171.543 74.038 167.217 63.3163 167.384 55.3952C167.464 51.6535 166.785 47.9345 165.388 44.4626C163.991 40.9908 161.904 37.8382 159.254 35.1953C156.509 32.4432 153.216 30.2998 149.588 28.9044C145.96 27.5091 142.079 26.8931 138.197 27.0966C130.736 27.4728 121.321 23.8571 116.043 18.5694C110.831 13.3622 103.765 10.4373 96.3975 10.4373C89.0299 10.4373 81.9636 13.3622 76.7515 18.5694C71.4847 23.8571 62.0588 27.4728 54.5975 27.0966C50.7176 26.8946 46.8386 27.5113 43.2126 28.9066C39.5867 30.3019 36.2949 32.4446 33.5512 35.1953C30.9027 37.837 28.8168 40.9879 27.4195 44.4578C26.0222 47.9278 25.3424 51.6448 25.4211 55.3847Z" fill="#673E2C"/>
<path fill-rule="evenodd" clip-rule="evenodd" d="M125.628 68.5939C126.228 68.9274 126.756 69.3757 127.182 69.9133C127.609 70.4508 127.925 71.0672 128.113 71.727C128.302 72.3869 128.358 73.0774 128.279 73.759C128.201 74.4407 127.989 75.1002 127.655 75.6999L98.6356 127.95C98.3021 128.55 97.8538 129.078 97.3162 129.504C96.7786 129.931 96.1623 130.247 95.5024 130.435C94.8426 130.624 94.1521 130.68 93.4705 130.601C92.7888 130.523 92.1293 130.311 91.5296 129.977C90.9299 129.644 90.4017 129.195 89.9753 128.658C89.5489 128.12 89.2325 127.504 89.0442 126.844C88.856 126.184 88.7995 125.494 88.8781 124.812C88.9567 124.13 89.1688 123.471 89.5023 122.871L118.522 70.6212C118.855 70.0215 119.304 69.4933 119.841 69.0669C120.379 68.6404 120.995 68.324 121.655 68.1358C122.315 67.9475 123.005 67.8911 123.687 67.9697C124.369 68.0483 125.028 68.2604 125.628 68.5939Z" fill="#673E2C"/>
<path fill-rule="evenodd" clip-rule="evenodd" d="M60.9199 98.9206C61.7855 97.841 63.044 97.1489 64.4193 96.9961C65.7945 96.8433 67.1743 97.2422 68.2558 98.1055L97.2859 121.325C98.3681 122.191 99.062 123.452 99.2149 124.83C99.3678 126.207 98.9671 127.589 98.101 128.672C97.2349 129.754 95.9743 130.448 94.5966 130.601C93.2189 130.754 91.8369 130.353 90.7546 129.487L61.735 106.277C61.1989 105.849 60.7526 105.318 60.4215 104.717C60.0904 104.116 59.881 103.455 59.8053 102.773C59.7296 102.091 59.7891 101.4 59.9803 100.741C60.1716 100.082 60.4908 99.4668 60.9199 98.931" fill="#673E2C"/>
</svg>
