<svg width="332" height="71" viewBox="0 0 332 71" fill="none" xmlns="http://www.w3.org/2000/svg">
<path d="M43.4229 2.10449C47.5054 4.40807 54.3736 10.9255 57.9463 20.998L58.377 22.2129L59.3984 21.4258C61.1503 20.0765 66.6761 17.1533 75.3916 16.6982C75.8746 19.0924 76.2172 22.75 75.7617 26.7012C75.2559 31.0891 73.7786 35.7632 70.5098 39.4854L68.9541 41.2568L71.3008 41.0332C72.8746 40.8835 75.5187 40.844 78.3457 41.3477C80.954 41.8124 83.6492 42.7293 85.8135 44.3838C84.0393 47.8999 79.0343 54.7597 69.9912 57.8877L69.8662 57.7295C71.9499 56.7374 74.7153 55.2241 77.3008 53.3965C80.3326 51.2534 83.2853 48.5672 84.4629 45.6777L84.7256 45.0342L84.1855 44.5977C82.5898 43.307 79.2512 41.9245 74.9141 41.5967C70.5415 41.2662 65.0886 42.0005 59.2412 45.0303L59.21 45.0469L59.1797 45.0654L43.8389 54.5732L42.6885 55.2861L43.7627 56.1104L48.8291 59.9941L49.3799 60.416L49.9443 60.0107C51.8879 58.6136 57.2035 56.0303 64.1523 58.2607C65.2528 58.667 66.6575 59.5382 67.418 60.7734C67.7891 61.3763 68.0063 62.0615 67.9746 62.8428C67.943 63.62 67.661 64.5566 66.9365 65.6611C64.99 68.0401 58.4394 71.877 47.9385 66.6807L48.5381 66.1494C49.9298 66.8894 51.965 67.7395 54.2031 68.2334C56.7519 68.7958 59.6913 68.9238 62.249 67.7627C63.0659 67.5265 64.2272 67.0282 65.1885 66.2373C66.1837 65.4185 67.088 64.174 66.9365 62.5146L66.9277 62.4229L66.9023 62.334L66.8369 62.1387C66.0888 60.1032 62.8972 57.6022 56.043 58.4561C53.9807 58.6159 49.2191 59.8604 45.6719 63.6455C43.7305 65.2036 40.3022 67.2729 36.3428 68.3984C32.3583 69.5311 27.9383 69.6833 23.9463 67.5342L23.877 67.4971L23.8018 67.4717L23.5742 67.3828C22.4597 66.8983 20.452 65.3151 20.123 62.0615H20.54C21.0357 64.8724 23.7293 67.6036 27.96 68.335C32.6945 69.1533 39.3616 67.5231 47.584 61.0576L48.5273 60.3154L47.5771 59.582L42.3701 55.5654L41.8955 55.1992L41.3652 55.4766C37.1902 57.6571 30.1165 59.6846 22.5615 58.6367C15.2555 57.6233 7.44411 53.7279 1.30469 44.168C4.02378 42.6786 9.8688 40.4751 16.5283 41.0342L19.4463 41.2793L17.2109 39.3877C14.1306 36.7823 8.60539 28.5454 11.6875 16.6826C15.0133 16.8212 21.8124 17.9103 27.8086 21.4883L28.9014 22.1396L29.1973 20.9043C29.1973 20.9041 29.1969 20.9028 29.1973 20.9014C29.198 20.8984 29.2002 20.8934 29.2021 20.8857C29.2062 20.8699 29.2121 20.8438 29.2217 20.8086C29.2408 20.7381 29.2715 20.6292 29.3154 20.4854C29.4033 20.1976 29.5445 19.7693 29.7529 19.2236C30.17 18.1317 30.8572 16.5709 31.9287 14.7275C34.0153 11.138 37.5615 6.47252 43.4229 2.10449Z" fill="#673E2C" stroke="#673E2C" stroke-width="1.87042"/>
<path d="M30.9637 43.3163C26.235 36.0315 26.8354 26.8005 27.7268 23.0956C24.3494 20.096 16.3741 18.5427 12.8086 18.1409C10.1065 29.4966 16.3739 38.0491 19.8454 40.9059C28.8525 43.7984 38.5163 50.7707 42.2224 53.8953C51.2293 49.503 55.2638 40.9952 56.1552 37.2903C61.5595 20.5781 49.869 8.09755 43.3483 3.94629C25.3339 16.1322 28.7587 35.0138 32.6524 42.5128C32.4272 43.2627 31.4328 43.3609 30.9637 43.3163Z" fill="#F1F1F1" stroke="#673E2C" stroke-width="1.87042"/>
<path d="M67.1302 40.7717C63.077 41.4145 57.7478 44.3427 55.5898 45.7264C60.6563 37.4775 60.2341 27.202 59.3897 23.0954C61.8667 20.5243 70.2733 18.7209 74.167 18.1406C76.6439 29.4963 70.5078 37.9595 67.1302 40.7717Z" fill="#F1F1F1" stroke="#673E2C" stroke-width="1.87042"/>
<path d="M33.9169 50.6819C20.5189 39.5404 7.69318 42.2008 2.95508 44.9237C14.6643 60.3503 32.1343 58.2702 39.4056 55.1009C37.8294 53.6011 35.0897 51.53 33.9169 50.6819Z" fill="#F1F1F1" stroke="#673E2C" stroke-width="1.87042"/>
<path d="M43.6357 17.9072C44.8136 17.8945 46.1245 18.2074 47.2871 18.9473C49.5363 20.3787 51.4853 23.5942 50.4033 29.9004L50.3975 29.9336C50.2175 31.2651 49.1649 33.8526 46.7666 36.7812C44.4739 39.5809 40.9888 42.6377 35.9951 45.1406L35.0137 44.2588C36.9638 43.306 39.7408 41.5941 42.2432 39.3213L42.9414 38.6875L42.3008 37.9941C40.6949 36.2567 38.6345 32.8264 37.8682 29.1006C37.1082 25.4058 37.6374 21.5708 40.957 18.7158C41.479 18.2669 42.4366 17.9203 43.6357 17.9072Z" stroke="#673E2C" stroke-width="1.87042"/>
<path d="M97.4716 54.156V52.856L98.5116 52.752C99.7249 52.6133 100.644 52.44 101.268 52.232C101.926 51.9893 102.377 51.504 102.62 50.776C102.862 50.0133 102.984 48.7827 102.984 47.084V23.996C102.984 22.2627 102.862 21.032 102.62 20.304C102.377 19.576 101.926 19.108 101.268 18.9C100.644 18.6573 99.7249 18.4667 98.5116 18.328L97.4716 18.224V16.924L105.168 17.08H112.24C114.32 17.08 116.261 17.2187 118.064 17.496C119.866 17.7387 121.444 18.224 122.796 18.952C124.148 19.6453 125.205 20.668 125.968 22.02C126.73 23.372 127.112 25.1227 127.112 27.272C127.112 30.3573 125.95 32.8533 123.628 34.76C121.305 36.6667 117.925 37.62 113.488 37.62H107.404V47.084C107.404 48.7827 107.542 50.0133 107.82 50.776C108.132 51.504 108.669 51.9893 109.432 52.232C110.194 52.44 111.269 52.6133 112.656 52.752L113.8 52.856V54.156L105.012 54L97.4716 54.156ZM114.268 18.536H107.404V36.06H113.488C115.88 36.06 117.7 35.7133 118.948 35.02C120.196 34.3267 121.045 33.3213 121.496 32.004C121.946 30.6867 122.172 29.1093 122.172 27.272C122.172 25.296 121.912 23.736 121.392 22.592C120.906 21.4133 120.248 20.5293 119.416 19.94C118.618 19.3507 117.752 18.9693 116.816 18.796C115.914 18.6227 115.065 18.536 114.268 18.536ZM129.855 54.156V52.96L130.687 52.856C131.693 52.7173 132.455 52.5613 132.975 52.388C133.53 52.18 133.911 51.7467 134.119 51.088C134.327 50.3947 134.431 49.268 134.431 47.708V36.892C134.431 35.54 134.241 34.552 133.859 33.928C133.513 33.304 132.993 32.9227 132.299 32.784C131.606 32.6107 130.791 32.524 129.855 32.524V31.328C131.277 31.328 132.646 31.276 133.963 31.172C135.281 31.068 136.65 30.912 138.071 30.704L137.499 36.684H137.707C138.47 34.3613 139.406 32.732 140.515 31.796C141.625 30.86 142.821 30.392 144.103 30.392C145.559 30.392 146.53 30.756 147.015 31.484C147.501 32.1773 147.743 32.8533 147.743 33.512C147.743 34.2747 147.518 34.8987 147.067 35.384C146.617 35.8693 146.01 36.112 145.247 36.112C144.519 36.112 143.965 35.9387 143.583 35.592C143.202 35.2453 143.011 34.8467 143.011 34.396C143.011 34.0493 143.046 33.72 143.115 33.408C143.219 33.096 143.271 32.8533 143.271 32.68C143.271 32.3333 143.029 32.16 142.543 32.16C142.058 32.16 141.538 32.3853 140.983 32.836C140.463 33.2867 140.013 33.9107 139.631 34.708C139.319 35.3667 139.025 36.0947 138.747 36.892C138.47 37.6893 138.245 38.556 138.071 39.492V47.708C138.071 49.268 138.175 50.3947 138.383 51.088C138.591 51.7467 138.955 52.18 139.475 52.388C140.03 52.5613 140.81 52.7173 141.815 52.856L142.647 52.96V54.156L136.251 54L129.855 54.156ZM156.627 54.572C154.963 54.572 153.576 54.156 152.467 53.324C151.392 52.4573 150.855 51.2613 150.855 49.736C150.855 48.2107 151.531 46.8587 152.883 45.68C154.235 44.4667 155.812 43.3747 157.615 42.404C158.967 41.6413 160.319 40.9827 161.671 40.428C163.023 39.8733 164.184 39.4053 165.155 39.024V37.36C165.155 35.4533 164.791 34.032 164.063 33.096C163.37 32.16 162.035 31.692 160.059 31.692C159.123 31.692 158.204 31.8133 157.303 32.056C156.402 32.2987 155.951 32.7493 155.951 33.408C155.951 33.5467 155.968 33.7027 156.003 33.876C156.072 34.0493 156.124 34.2227 156.159 34.396C156.332 34.8467 156.419 35.3147 156.419 35.8C156.419 36.4587 156.176 36.9787 155.691 37.36C155.24 37.7067 154.686 37.88 154.027 37.88C153.403 37.88 152.883 37.6547 152.467 37.204C152.051 36.7187 151.843 36.1467 151.843 35.488C151.843 34.24 152.311 33.252 153.247 32.524C154.218 31.7613 155.396 31.224 156.783 30.912C158.17 30.5653 159.504 30.392 160.787 30.392C163.56 30.392 165.588 31.0333 166.871 32.316C168.154 33.5987 168.795 35.696 168.795 38.608V47.968C168.795 49.4933 168.899 50.672 169.107 51.504C169.35 52.336 169.87 52.752 170.667 52.752C171.187 52.752 171.638 52.5613 172.019 52.18C172.4 51.7987 172.66 51.3827 172.799 50.932L173.735 51.296C173.458 52.3013 172.955 53.0987 172.227 53.688C171.534 54.2773 170.563 54.572 169.315 54.572C167.79 54.572 166.732 54.1387 166.143 53.272C165.588 52.3707 165.276 51.192 165.207 49.736C164.236 51.296 163.006 52.492 161.515 53.324C160.024 54.156 158.395 54.572 156.627 54.572ZM154.911 49.476C154.911 50.4467 155.188 51.2267 155.743 51.816C156.332 52.3707 157.182 52.648 158.291 52.648C159.296 52.648 160.25 52.4053 161.151 51.92C162.087 51.4347 162.902 50.828 163.595 50.1C164.288 49.3373 164.808 48.5227 165.155 47.656V40.064C164.011 40.5493 162.832 41.1213 161.619 41.78C160.44 42.404 159.331 43.1147 158.291 43.912C157.286 44.7093 156.471 45.576 155.847 46.512C155.223 47.4133 154.911 48.4013 154.911 49.476ZM175.203 54.156V52.96L176.035 52.856C177.04 52.7173 177.803 52.5613 178.323 52.388C178.878 52.18 179.259 51.7467 179.467 51.088C179.675 50.3947 179.779 49.268 179.779 47.708V36.736C179.779 34.9333 179.398 33.7893 178.635 33.304C177.907 32.784 176.884 32.524 175.567 32.524H175.203V31.328C176.624 31.328 177.994 31.2933 179.311 31.224C180.628 31.12 181.998 30.9467 183.419 30.704V34.916C184.216 33.7373 185.343 32.6973 186.799 31.796C188.255 30.86 189.954 30.392 191.895 30.392C194.252 30.392 196.107 30.9987 197.459 32.212C198.846 33.3907 199.539 35.0893 199.539 37.308V47.708C199.539 49.268 199.643 50.3947 199.851 51.088C200.059 51.7467 200.423 52.18 200.943 52.388C201.498 52.5613 202.278 52.7173 203.283 52.856L204.115 52.96V54.156L197.719 54L191.323 54.156V52.96L192.155 52.856C193.16 52.7173 193.923 52.5613 194.443 52.388C194.998 52.18 195.379 51.7467 195.587 51.088C195.795 50.3947 195.899 49.268 195.899 47.708V37.308C195.899 35.5747 195.448 34.2573 194.547 33.356C193.646 32.42 192.38 31.952 190.751 31.952C189.503 31.952 188.376 32.2467 187.371 32.836C186.366 33.3907 185.534 34.084 184.875 34.916C184.216 35.748 183.731 36.5453 183.419 37.308V47.708C183.419 49.268 183.523 50.3947 183.731 51.088C183.939 51.7467 184.303 52.18 184.823 52.388C185.378 52.5613 186.158 52.7173 187.163 52.856L187.995 52.96V54.156L181.599 54L175.203 54.156ZM213.045 54.572C211.381 54.572 209.994 54.156 208.885 53.324C207.81 52.4573 207.273 51.2613 207.273 49.736C207.273 48.2107 207.949 46.8587 209.301 45.68C210.653 44.4667 212.23 43.3747 214.033 42.404C215.385 41.6413 216.737 40.9827 218.089 40.428C219.441 39.8733 220.602 39.4053 221.573 39.024V37.36C221.573 35.4533 221.209 34.032 220.481 33.096C219.788 32.16 218.453 31.692 216.477 31.692C215.541 31.692 214.622 31.8133 213.721 32.056C212.82 32.2987 212.369 32.7493 212.369 33.408C212.369 33.5467 212.386 33.7027 212.421 33.876C212.49 34.0493 212.542 34.2227 212.577 34.396C212.75 34.8467 212.837 35.3147 212.837 35.8C212.837 36.4587 212.594 36.9787 212.109 37.36C211.658 37.7067 211.104 37.88 210.445 37.88C209.821 37.88 209.301 37.6547 208.885 37.204C208.469 36.7187 208.261 36.1467 208.261 35.488C208.261 34.24 208.729 33.252 209.665 32.524C210.636 31.7613 211.814 31.224 213.201 30.912C214.588 30.5653 215.922 30.392 217.205 30.392C219.978 30.392 222.006 31.0333 223.289 32.316C224.572 33.5987 225.213 35.696 225.213 38.608V47.968C225.213 49.4933 225.317 50.672 225.525 51.504C225.768 52.336 226.288 52.752 227.085 52.752C227.605 52.752 228.056 52.5613 228.437 52.18C228.818 51.7987 229.078 51.3827 229.217 50.932L230.153 51.296C229.876 52.3013 229.373 53.0987 228.645 53.688C227.952 54.2773 226.981 54.572 225.733 54.572C224.208 54.572 223.15 54.1387 222.561 53.272C222.006 52.3707 221.694 51.192 221.625 49.736C220.654 51.296 219.424 52.492 217.933 53.324C216.442 54.156 214.813 54.572 213.045 54.572ZM211.329 49.476C211.329 50.4467 211.606 51.2267 212.161 51.816C212.75 52.3707 213.6 52.648 214.709 52.648C215.714 52.648 216.668 52.4053 217.569 51.92C218.505 51.4347 219.32 50.828 220.013 50.1C220.706 49.3373 221.226 48.5227 221.573 47.656V40.064C220.429 40.5493 219.25 41.1213 218.037 41.78C216.858 42.404 215.749 43.1147 214.709 43.912C213.704 44.7093 212.889 45.576 212.265 46.512C211.641 47.4133 211.329 48.4013 211.329 49.476ZM241.565 54L233.089 35.28C232.777 34.5867 232.396 33.9973 231.945 33.512C231.495 33.0267 230.819 32.732 229.917 32.628L228.981 32.524V31.328L234.337 31.484L239.641 31.328V32.524L238.809 32.628C238.047 32.732 237.509 32.9227 237.197 33.2C236.885 33.4427 236.729 33.7893 236.729 34.24C236.729 34.6213 236.868 35.1413 237.145 35.8L243.697 50.256L249.781 36.008C250.093 35.3147 250.249 34.7427 250.249 34.292C250.249 33.3907 249.452 32.836 247.857 32.628L246.973 32.524V31.328L251.653 31.484L256.021 31.328V32.524L254.825 32.68C253.855 32.8187 253.109 33.2 252.589 33.824C252.069 34.4133 251.549 35.3147 251.029 36.528L243.541 54H241.565ZM257.989 69.288C256.81 69.288 255.926 68.9933 255.337 68.404C254.747 67.8493 254.453 67.2253 254.453 66.532C254.453 65.8387 254.713 65.2493 255.233 64.764C255.718 64.3133 256.342 64.088 257.105 64.088C257.59 64.088 257.971 64.1573 258.249 64.296C258.526 64.4693 258.786 64.6427 259.029 64.816C259.271 64.9893 259.549 65.1627 259.861 65.336C260.173 65.544 260.537 65.648 260.953 65.648C261.577 65.648 262.218 65.4053 262.877 64.92C263.57 64.4347 264.281 63.4293 265.009 61.904L268.441 54.52L259.809 35.592C259.462 34.7947 259.081 34.136 258.665 33.616C258.249 33.096 257.607 32.784 256.741 32.68L255.545 32.524V31.328L260.953 31.484L266.205 31.328V32.524L265.477 32.628C264.021 32.836 263.293 33.3733 263.293 34.24C263.293 34.656 263.483 35.28 263.865 36.112L270.365 50.36L276.865 36.372C277.246 35.5053 277.437 34.8293 277.437 34.344C277.437 33.408 276.587 32.836 274.889 32.628L274.057 32.524V31.328L279.049 31.484L283.209 31.328V32.524L282.429 32.628C281.146 32.8013 280.21 33.2693 279.621 34.032C279.066 34.7947 278.546 35.7307 278.061 36.84L266.309 62.476C265.754 63.6547 265.095 64.764 264.333 65.804C263.605 66.844 262.721 67.676 261.681 68.3C260.675 68.9587 259.445 69.288 257.989 69.288ZM290.029 54.572C288.365 54.572 286.979 54.156 285.869 53.324C284.795 52.4573 284.257 51.2613 284.257 49.736C284.257 48.2107 284.933 46.8587 286.285 45.68C287.637 44.4667 289.215 43.3747 291.017 42.404C292.369 41.6413 293.721 40.9827 295.073 40.428C296.425 39.8733 297.587 39.4053 298.557 39.024V37.36C298.557 35.4533 298.193 34.032 297.465 33.096C296.772 32.16 295.437 31.692 293.461 31.692C292.525 31.692 291.607 31.8133 290.705 32.056C289.804 32.2987 289.353 32.7493 289.353 33.408C289.353 33.5467 289.371 33.7027 289.405 33.876C289.475 34.0493 289.527 34.2227 289.561 34.396C289.735 34.8467 289.821 35.3147 289.821 35.8C289.821 36.4587 289.579 36.9787 289.093 37.36C288.643 37.7067 288.088 37.88 287.429 37.88C286.805 37.88 286.285 37.6547 285.869 37.204C285.453 36.7187 285.245 36.1467 285.245 35.488C285.245 34.24 285.713 33.252 286.649 32.524C287.62 31.7613 288.799 31.224 290.185 30.912C291.572 30.5653 292.907 30.392 294.189 30.392C296.963 30.392 298.991 31.0333 300.273 32.316C301.556 33.5987 302.197 35.696 302.197 38.608V47.968C302.197 49.4933 302.301 50.672 302.509 51.504C302.752 52.336 303.272 52.752 304.069 52.752C304.589 52.752 305.04 52.5613 305.421 52.18C305.803 51.7987 306.063 51.3827 306.201 50.932L307.137 51.296C306.86 52.3013 306.357 53.0987 305.629 53.688C304.936 54.2773 303.965 54.572 302.717 54.572C301.192 54.572 300.135 54.1387 299.545 53.272C298.991 52.3707 298.679 51.192 298.609 49.736C297.639 51.296 296.408 52.492 294.917 53.324C293.427 54.156 291.797 54.572 290.029 54.572ZM288.313 49.476C288.313 50.4467 288.591 51.2267 289.145 51.816C289.735 52.3707 290.584 52.648 291.693 52.648C292.699 52.648 293.652 52.4053 294.553 51.92C295.489 51.4347 296.304 50.828 296.997 50.1C297.691 49.3373 298.211 48.5227 298.557 47.656V40.064C297.413 40.5493 296.235 41.1213 295.021 41.78C293.843 42.404 292.733 43.1147 291.693 43.912C290.688 44.7093 289.873 45.576 289.249 46.512C288.625 47.4133 288.313 48.4013 288.313 49.476Z" fill="#673E2C"/>
</svg>
