<svg width="30" height="27" viewBox="0 0 30 27" fill="none" xmlns="http://www.w3.org/2000/svg">
<path d="M14.9473 1.60791C14.9877 1.60791 15.0231 1.61905 15.0479 1.63428C15.0693 1.64752 15.0777 1.66106 15.0811 1.66748L18.3047 9.78857L18.4297 10.105H27.8779L27.9346 10.1118C27.9514 10.1166 27.9662 10.1237 27.9785 10.1313C28.0024 10.1462 28.0113 10.161 28.0137 10.1665C28.0148 10.1692 28.0146 10.1711 28.0146 10.1714C28.0146 10.1717 28.0149 10.1723 28.0146 10.1733C28.0139 10.176 28.0089 10.1886 27.9893 10.2036L20.3848 15.8081L20.0801 16.0317L20.2129 16.3862L23.3984 24.894C23.3987 24.8951 23.3994 24.8957 23.3994 24.896C23.3994 24.8962 23.3993 24.8976 23.3984 24.8999C23.3968 24.9044 23.3893 24.9195 23.3652 24.9351C23.3403 24.9512 23.3032 24.9634 23.2607 24.9634C23.2185 24.9633 23.182 24.9511 23.1572 24.9351H23.1582L15.2188 19.7573L14.9453 19.5796L14.6729 19.7573L6.73145 24.9321C6.70666 24.9481 6.67005 24.9605 6.62793 24.9604C6.58585 24.9604 6.54996 24.9481 6.52539 24.9321C6.50169 24.9167 6.49475 24.9022 6.49316 24.8979C6.49259 24.8964 6.49221 24.8954 6.49219 24.895C6.49219 24.895 6.49234 24.8933 6.49316 24.8911L6.49219 24.8901L9.67969 16.3853L9.8125 16.0308L9.50781 15.8071L1.90137 10.2026C1.88182 10.1876 1.87675 10.175 1.87598 10.1724V10.1704C1.87599 10.1702 1.87584 10.1682 1.87695 10.1655C1.87919 10.1602 1.88791 10.1454 1.91211 10.1304C1.93682 10.115 1.97203 10.1032 2.0127 10.103H11.4629L11.5879 9.7876L14.8125 1.66943C14.8147 1.66419 14.8227 1.64913 14.8467 1.63428C14.8714 1.61906 14.9068 1.60792 14.9473 1.60791Z" stroke="#FFC107"/>
</svg>
