<svg width="347" height="316" viewBox="0 0 347 316" fill="none" xmlns="http://www.w3.org/2000/svg">
<path d="M172.631 153.665C213.339 153.037 286.854 121.664 255.257 1.19264C204.441 10.6907 116.773 54.4825 172.631 153.665Z" stroke="#673E2C"/>
<path d="M173.638 152.307C187.652 190.532 241.51 249.593 344.827 180.042C319.105 135.199 248.858 66.8721 173.638 152.307Z" stroke="#673E2C"/>
<path d="M173.784 152.298C151.378 186.29 135.901 264.708 253.246 306.444C274.015 259.103 287.2 161.998 173.784 152.298Z" stroke="#673E2C"/>
<path d="M173.38 153.011C134.152 163.902 54.769 154.56 51.0678 30.0697C102.498 24.8343 198.963 42.0929 173.38 153.011Z" stroke="#673E2C"/>
<path d="M173.363 152.307C159.349 190.531 105.492 249.592 2.17459 180.042C27.8958 135.199 98.1433 66.8716 173.363 152.307Z" stroke="#673E2C"/>
<path d="M174.888 154.039C198.321 187.332 216.181 265.241 100.163 310.535C77.9602 263.85 61.8209 167.192 174.888 154.039Z" stroke="#673E2C"/>
</svg>
