<svg width="30" height="27" viewBox="0 0 30 27" fill="none" xmlns="http://www.w3.org/2000/svg">
<path d="M14.3514 1.47486C14.3969 1.367 14.4783 1.27406 14.5848 1.20844C14.6913 1.14282 14.8178 1.10767 14.9473 1.10767C15.0769 1.10767 15.2034 1.14282 15.3099 1.20844C15.4164 1.27406 15.4978 1.367 15.5433 1.47486L18.7691 9.60429H27.8798C28.0098 9.60475 28.1365 9.6405 28.243 9.70674C28.3494 9.77299 28.4306 9.86656 28.4756 9.97494C28.5205 10.0833 28.5272 10.2013 28.4946 10.3132C28.4621 10.425 28.3918 10.5253 28.2933 10.6007L20.6809 16.2103L23.8669 24.7184C23.9092 24.8324 23.9097 24.9553 23.8683 25.0696C23.827 25.1838 23.7459 25.2835 23.6368 25.3541C23.5276 25.4248 23.3961 25.4628 23.2611 25.4628C23.126 25.4627 22.9945 25.4246 22.8854 25.3539L14.9455 20.176L7.00176 25.3528C6.89277 25.4229 6.76157 25.4606 6.62699 25.4603C6.49242 25.46 6.36141 25.4219 6.25278 25.3513C6.14415 25.2807 6.06349 25.1813 6.02239 25.0673C5.9813 24.9534 5.98188 24.8309 6.02406 24.7173L9.21125 16.2092L1.5976 10.5996C1.49911 10.5242 1.42889 10.4239 1.39632 10.312C1.36376 10.2002 1.37041 10.0822 1.41539 9.97383C1.46036 9.86545 1.54152 9.77188 1.64798 9.70563C1.75445 9.63939 1.88114 9.60364 2.0111 9.60318H11.1231L14.3514 1.47486Z" fill="#FFC107"/>
</svg>
