<svg width="30" height="27" viewBox="0 0 30 27" fill="none" xmlns="http://www.w3.org/2000/svg">
<path d="M15.5403 1.4751C15.4948 1.36725 15.4134 1.2743 15.3069 1.20868C15.2004 1.14307 15.0739 1.10791 14.9443 1.10791C14.8147 1.10791 14.6883 1.14307 14.5818 1.20868C14.4753 1.2743 14.3938 1.36725 14.3484 1.4751L11.1226 9.60453H2.01182C1.88187 9.60499 1.75517 9.64074 1.64871 9.70699C1.54224 9.77323 1.46108 9.86681 1.41611 9.97518C1.37113 10.0836 1.36448 10.2016 1.39705 10.3134C1.42961 10.4252 1.49984 10.5255 1.59832 10.6009L9.21073 16.2106L6.02478 24.7186C5.98248 24.8326 5.98198 24.9556 6.02334 25.0698C6.0647 25.1841 6.14578 25.2837 6.25492 25.3544C6.36405 25.425 6.4956 25.4631 6.63061 25.463C6.76563 25.463 6.89715 25.4249 7.00622 25.3541L14.9462 20.1762L22.8899 25.353C22.9989 25.4232 23.1301 25.4608 23.2647 25.4606C23.3993 25.4603 23.5303 25.4221 23.6389 25.3515C23.7475 25.2809 23.8282 25.1815 23.8693 25.0676C23.9104 24.9537 23.9098 24.8311 23.8676 24.7175L20.6804 16.2095L28.2941 10.5998C28.3926 10.5244 28.4628 10.4241 28.4953 10.3123C28.5279 10.2005 28.5213 10.0825 28.4763 9.97408C28.4313 9.8657 28.3502 9.77212 28.2437 9.70588C28.1372 9.63964 28.0105 9.60389 27.8806 9.60342H18.7686L15.5403 1.4751Z" fill="#FFC107"/>
<path d="M15.3526 19.9558L23.1094 25.0115C23.15 25.0376 23.2043 25.0545 23.2637 25.0544C23.3232 25.0543 23.3777 25.0367 23.418 25.0105C23.4577 24.9846 23.4785 24.954 23.4874 24.9294C23.4958 24.9059 23.4961 24.8818 23.4874 24.8582L20.2999 16.3513L20.1925 16.0642L20.4395 15.8826L28.0499 10.2742C28.0821 10.2486 28.0989 10.2214 28.1055 10.199C28.112 10.1768 28.1113 10.1532 28.1016 10.1296C28.0914 10.1051 28.069 10.0752 28.0294 10.0505C28.0094 10.0381 27.9862 10.0274 27.961 10.0203L27.879 10.0095H18.4932L18.3907 9.75269L15.3516 2.09155L15.3526 19.9558Z" fill="#FFF9BF" stroke="#FFC107" stroke-width="0.812274"/>
</svg>
