<svg width="315" height="71" viewBox="0 0 315 71" fill="none" xmlns="http://www.w3.org/2000/svg">
<path d="M62.4482 43.5028C65.3163 43.0522 78.7385 38.0843 87.105 45.776C84.5411 53.6443 70.8676 56.6009 70.8676 56.6009" stroke="#673E2C" stroke-width="3.06886"/>
<path d="M41.3277 38.4875C35.11 32.3085 35.4168 18.0282 43.0849 18.8749C46.7345 19.2779 52.5468 28.6804 42.0036 39.293L39.5706 41.4422L35.8643 44.8524" stroke="#673E2C" stroke-width="3.06886"/>
<path d="M49.2172 67.4248C53.1494 68.7355 63.0534 68.7306 67.7245 62.6242C68.0241 62.2325 68.2068 61.7501 68.1608 61.2591C67.6515 55.8287 55.942 54.7499 45.8496 61.1793" stroke="#673E2C" stroke-width="3.06886"/>
<path d="M40.651 54.875L46.4632 60.2482C39.9751 69.5169 19.835 72.6065 19.835 60.9198" stroke="#673E2C" stroke-width="3.06886"/>
<path d="M1.8584 44.3956C11.3202 61.8584 32.001 59.3062 39.3002 55.545C37.1375 49.0972 23.0799 42.5151 16.5918 41.3061C5.50796 40.2315 1.8584 44.3956 1.8584 44.3956Z" stroke="#673E2C" stroke-width="3.06886"/>
<path d="M56.1699 22.0488C58.9108 20.2533 64.6077 16.6205 72.6045 16.9971C73.1314 18.0055 73.4872 19.382 73.6006 21.0732C73.7368 23.1052 73.5155 25.4725 72.9268 27.9385C71.7447 32.8893 69.135 38.0301 65.3018 41.5146C63.5554 43.1021 60.448 44.2903 57.1289 45.1211C54.9678 45.662 52.8355 46.0216 51.1572 46.2549C52.4783 44.1893 54.197 41.1347 55.4551 37.5674C57.0598 33.0168 57.9721 27.4674 56.1699 22.0488Z" stroke="#673E2C" stroke-width="3.06886"/>
<path d="M42.9199 2.59863C48.7628 6.95355 54.9857 15.2634 56.6641 24.8076C58.3697 34.5078 55.3432 45.3049 42.9863 54.2666C41.6262 55.253 39.7797 55.0656 38.6133 53.9404C35.3478 50.7906 28.2723 44.7018 18.5898 41.8379L18.2012 41.7236L17.9199 41.4316C14.6851 38.0771 8.05473 29.0956 11.1924 17.6621L11.502 16.5332H12.6719C16.5983 16.5332 23.1305 18.1698 27.4844 21.3428L28.1016 21.793C29.5734 15.2822 33.3082 8.41047 41.085 2.59961L42.002 1.91406L42.9199 2.59863Z" stroke="#673E2C" stroke-width="3.06886"/>
<path d="M94.3166 53.5769L94.789 52.2646L95.9439 52.1596C97.6936 51.9846 99.0059 51.5297 99.8808 50.7948C100.791 50.0599 101.561 48.7476 102.19 46.8579L110.957 20.3493C111.062 19.9294 111.114 19.5794 111.114 19.2995C111.114 18.7045 110.817 18.2846 110.222 18.0396C109.662 17.7597 108.664 17.5497 107.23 17.4097L106.232 17.3047L106.705 15.9924L114.421 16.1499H114.999L120.09 16.0974C124.745 16.0274 128.192 16.8498 130.431 18.5646C132.706 20.2793 133.843 22.554 133.843 25.3886C133.843 27.7332 133.161 29.8329 131.796 31.6876C130.431 33.5074 128.419 34.9422 125.759 35.992C123.135 37.0418 119.88 37.5668 115.996 37.5668C115.226 37.5668 114.369 37.5493 113.424 37.5143C112.514 37.4443 111.237 37.3393 109.592 37.1993L105.917 48.3802C105.777 48.7301 105.672 49.0801 105.602 49.43C105.567 49.745 105.55 50.0249 105.55 50.2699C105.55 50.8998 105.865 51.3372 106.495 51.5822C107.125 51.8272 108.245 52.0371 109.854 52.2121L110.852 52.3171L110.379 53.5769L102.138 53.4194L94.3166 53.5769ZM116.048 17.5672L110.064 35.7295C111.674 35.7995 112.864 35.852 113.634 35.887C114.404 35.922 114.946 35.9395 115.261 35.9395C117.956 35.9395 120.195 35.6071 121.98 34.9422C123.8 34.2773 125.235 33.4199 126.284 32.37C127.369 31.2852 128.139 30.1129 128.594 28.853C129.084 27.5582 129.329 26.3159 129.329 25.1261C129.329 22.6765 128.489 20.8042 126.809 19.5094C125.165 18.2146 123.03 17.5672 120.405 17.5672H116.048ZM131.113 53.4194L137.622 35.3621C138.042 34.2073 138.2 33.3674 138.095 32.8425C138.025 32.2825 137.692 31.9326 137.097 31.7926C136.537 31.6526 135.698 31.5826 134.578 31.5826L134.998 30.3228L142.189 30.1654L139.879 37.8817C140.649 36.4119 141.472 35.0471 142.347 33.7873C143.256 32.5275 144.254 31.5127 145.339 30.7428C146.459 29.9729 147.666 29.5879 148.961 29.5879C149.871 29.5879 150.763 29.8679 151.638 30.4278C152.513 30.9877 152.95 31.8801 152.95 33.1049C152.95 33.6298 152.775 34.1548 152.425 34.6797C152.11 35.2046 151.55 35.4671 150.745 35.4671C150.08 35.4671 149.573 35.2921 149.223 34.9422C148.873 34.5572 148.611 33.9798 148.436 33.2099C148.226 32.1601 147.701 31.6351 146.861 31.6351C146.196 31.6351 145.479 31.9501 144.709 32.58C143.974 33.2099 143.152 34.2423 142.242 35.677C141.647 36.6569 141.017 37.8292 140.352 39.194C139.687 40.5238 139.022 42.0811 138.357 43.8658L134.893 53.4194H131.113ZM159.598 54.1543C157.953 54.1543 156.606 53.8219 155.556 53.157C154.506 52.4571 153.736 51.5472 153.247 50.4274C152.757 49.2725 152.512 48.0477 152.512 46.7529C152.512 44.5482 152.984 42.4136 153.929 40.3489C154.874 38.2842 156.099 36.4469 157.603 34.8372C159.143 33.2274 160.805 31.9501 162.59 31.0052C164.375 30.0604 166.125 29.5879 167.839 29.5879C169.449 29.5879 170.656 30.1129 171.461 31.1627C172.301 32.2126 172.791 33.5599 172.931 35.2046L174.716 30.3228H178.18L171.619 48.9576C171.479 49.4825 171.356 49.9549 171.251 50.3749C171.146 50.7598 171.094 51.0923 171.094 51.3722C171.094 52.0721 171.374 52.4221 171.934 52.4221C172.704 52.4221 173.456 52.0196 174.191 51.2148C174.926 50.4099 175.521 49.6225 175.976 48.8526L176.921 49.4825C176.256 50.5674 175.398 51.6172 174.348 52.632C173.299 53.6469 172.021 54.1543 170.517 54.1543C169.432 54.1543 168.662 53.8919 168.207 53.3669C167.787 52.842 167.577 52.1421 167.577 51.2673C167.577 50.6023 167.682 49.85 167.892 49.0101C166.737 50.6198 165.46 51.8797 164.06 52.7895C162.66 53.6994 161.173 54.1543 159.598 54.1543ZM160.123 52.7895C162.118 52.7895 163.99 51.8447 165.74 49.9549C167.489 48.0302 168.994 45.5106 170.254 42.3961L170.884 40.6113C171.479 38.8616 171.776 37.2518 171.776 35.782C171.776 34.3472 171.479 33.1924 170.884 32.3175C170.289 31.4077 169.379 30.9527 168.154 30.9527C166.755 30.9527 165.355 31.4952 163.955 32.58C162.59 33.6298 161.33 35.0121 160.176 36.7269C159.056 38.4416 158.146 40.2789 157.446 42.2386C156.781 44.1633 156.449 46.018 156.449 47.8028C156.449 49.4475 156.781 50.6898 157.446 51.5297C158.111 52.3696 159.003 52.7895 160.123 52.7895ZM198.086 54.1543C197.001 54.1543 196.231 53.8919 195.776 53.3669C195.356 52.842 195.146 52.1596 195.146 51.3197C195.146 50.7948 195.216 50.2174 195.356 49.5875C195.496 48.9576 195.688 48.3102 195.933 47.6453L200.5 34.7322C200.885 33.6123 200.938 32.7025 200.658 32.0026C200.378 31.2677 199.73 30.9002 198.716 30.9002C197.771 30.9002 196.773 31.1977 195.723 31.7926C194.674 32.3525 193.659 33.0874 192.679 33.9973C191.699 34.9072 190.842 35.887 190.107 36.9369C189.372 37.9867 188.829 38.9841 188.48 39.9289L183.598 53.4194H179.818L186.327 35.3621C186.922 33.6473 186.975 32.5975 186.485 32.2126C185.995 31.7926 184.928 31.5826 183.283 31.5826L183.703 30.3228L191.419 30.1654L189.739 35.782C190.509 34.6972 191.402 33.6998 192.416 32.79C193.466 31.8451 194.604 31.0752 195.828 30.4803C197.088 29.8854 198.436 29.5879 199.87 29.5879C202.005 29.5879 203.387 30.1479 204.017 31.2677C204.647 32.3875 204.595 33.9798 203.86 36.0445L199.135 49.2201C198.891 49.9549 198.751 50.6723 198.716 51.3722C198.716 52.0721 199.013 52.4221 199.608 52.4221C200.413 52.4221 201.148 52.0546 201.813 51.3197C202.512 50.5499 203.09 49.78 203.545 49.0101L204.49 49.64C203.825 50.7248 202.967 51.7572 201.918 52.737C200.868 53.6819 199.59 54.1543 198.086 54.1543ZM215.73 54.1543C214.085 54.1543 212.738 53.8219 211.688 53.157C210.638 52.4571 209.868 51.5472 209.378 50.4274C208.888 49.2725 208.644 48.0477 208.644 46.7529C208.644 44.5482 209.116 42.4136 210.061 40.3489C211.006 38.2842 212.231 36.4469 213.735 34.8372C215.275 33.2274 216.937 31.9501 218.722 31.0052C220.507 30.0604 222.257 29.5879 223.971 29.5879C225.581 29.5879 226.788 30.1129 227.593 31.1627C228.433 32.2126 228.923 33.5599 229.063 35.2046L230.848 30.3228H234.312L227.751 48.9576C227.611 49.4825 227.488 49.9549 227.383 50.3749C227.278 50.7598 227.226 51.0923 227.226 51.3722C227.226 52.0721 227.506 52.4221 228.066 52.4221C228.836 52.4221 229.588 52.0196 230.323 51.2148C231.058 50.4099 231.653 49.6225 232.108 48.8526L233.052 49.4825C232.388 50.5674 231.53 51.6172 230.48 52.632C229.43 53.6469 228.153 54.1543 226.648 54.1543C225.564 54.1543 224.794 53.8919 224.339 53.3669C223.919 52.842 223.709 52.1421 223.709 51.2673C223.709 50.6023 223.814 49.85 224.024 49.0101C222.869 50.6198 221.592 51.8797 220.192 52.7895C218.792 53.6994 217.305 54.1543 215.73 54.1543ZM216.255 52.7895C218.25 52.7895 220.122 51.8447 221.872 49.9549C223.621 48.0302 225.126 45.5106 226.386 42.3961L227.016 40.6113C227.611 38.8616 227.908 37.2518 227.908 35.782C227.908 34.3472 227.611 33.1924 227.016 32.3175C226.421 31.4077 225.511 30.9527 224.286 30.9527C222.886 30.9527 221.487 31.4952 220.087 32.58C218.722 33.6298 217.462 35.0121 216.307 36.7269C215.188 38.4416 214.278 40.2789 213.578 42.2386C212.913 44.1633 212.58 46.018 212.58 47.8028C212.58 49.4475 212.913 50.6898 213.578 51.5297C214.243 52.3696 215.135 52.7895 216.255 52.7895ZM244.401 53.9968C244.051 52.3521 243.579 50.8473 242.984 49.4825C242.389 48.1177 241.812 46.8404 241.252 45.6506C240.727 44.4957 240.272 43.3934 239.887 42.3436C239.502 41.2587 239.31 40.1564 239.31 39.0366C239.31 37.2868 239.87 35.817 240.989 34.6272C242.109 33.4024 243.492 32.2825 245.136 31.2677L239.73 31.5826L240.202 30.3228L248.181 29.9029L248.443 30.7953C247.848 31.0752 247.166 31.4427 246.396 31.8976C245.661 32.3525 245.014 32.9999 244.454 33.8398C243.929 34.6447 243.667 35.7645 243.667 37.1993C243.667 38.6341 243.859 40.1214 244.244 41.6612C244.629 43.2009 245.119 45.0032 245.714 47.0679L246.816 50.5849L253.063 43.2884C254.182 42.0286 255.057 40.8038 255.687 39.614C256.317 38.4241 256.632 37.3918 256.632 36.5169C256.632 35.712 256.51 35.0471 256.265 34.5222C256.02 33.9623 255.757 33.4724 255.477 33.0524C255.232 32.5975 255.11 32.1601 255.11 31.7401C255.11 31.2502 255.337 30.7778 255.792 30.3228C256.247 29.8329 256.825 29.5879 257.525 29.5879C258.329 29.5879 259.012 29.9379 259.572 30.6378C260.167 31.3377 260.464 32.3 260.464 33.5249C260.464 35.1346 259.887 36.7269 258.732 38.3017C257.612 39.8414 256.247 41.5212 254.637 43.3409L245.294 53.9968H244.401ZM257.703 68.6422C256.583 68.6422 255.691 68.3797 255.026 67.8548C254.326 67.3299 253.976 66.6825 253.976 65.9126C253.976 65.1077 254.256 64.4778 254.816 64.0229C255.341 63.5679 255.988 63.3405 256.758 63.3405C257.423 63.3405 258.018 63.5329 258.543 63.9179C259.033 64.3028 259.558 64.6878 260.118 65.0727C260.642 65.4927 261.307 65.7026 262.112 65.7026C263.232 65.7026 264.352 65.0902 265.472 63.8654L269.776 59.2986C270.371 58.7037 270.861 58.0388 271.246 57.3039C271.666 56.569 271.876 55.8166 271.876 55.0467C271.876 53.9968 271.596 52.8945 271.036 51.7397C270.476 50.5499 269.794 49.3425 268.989 48.1177C268.009 46.5779 267.099 45.0207 266.259 43.4459C265.419 41.8361 264.999 40.2964 264.999 38.8266C264.999 36.9719 265.542 35.4846 266.627 34.3647C267.746 33.2449 269.059 32.2126 270.563 31.2677L265.157 31.5826L265.577 30.3228L273.608 29.9029L273.871 30.7953C272.086 31.6701 270.878 32.58 270.249 33.5249C269.619 34.4697 269.304 35.5721 269.304 36.8319C269.304 37.9167 269.479 39.089 269.829 40.3489C270.214 41.6087 270.668 42.851 271.193 44.0758C271.718 45.3006 272.191 46.4555 272.611 47.5403L274.815 52.947L277.23 49.9549C278.91 47.8553 280.1 46.0355 280.799 44.4957C281.534 42.956 281.972 41.6612 282.112 40.6113C282.287 39.5615 282.374 38.7566 282.374 38.1967C282.374 37.4268 282.269 36.7444 282.059 36.1495C281.849 35.5546 281.464 34.9771 280.904 34.4172C280.52 34.0323 280.17 33.6648 279.855 33.3149C279.575 32.9649 279.435 32.51 279.435 31.9501C279.435 31.4952 279.662 30.9877 280.117 30.4278C280.572 29.8679 281.167 29.5879 281.902 29.5879C282.602 29.5879 283.267 29.9904 283.897 30.7953C284.526 31.6001 284.841 32.9474 284.841 34.8372C284.841 36.8669 284.439 39.124 283.634 41.6087C282.829 44.0583 281.184 46.8404 278.7 49.9549L271.246 59.1936C269.181 61.7832 267.396 63.7604 265.892 65.1252C264.422 66.49 263.057 67.4174 261.797 67.9073C260.537 68.3972 259.173 68.6422 257.703 68.6422ZM294.366 54.1543C292.721 54.1543 291.374 53.8219 290.324 53.157C289.274 52.4571 288.504 51.5472 288.014 50.4274C287.524 49.2725 287.279 48.0477 287.279 46.7529C287.279 44.5482 287.752 42.4136 288.697 40.3489C289.642 38.2842 290.866 36.4469 292.371 34.8372C293.911 33.2274 295.573 31.9501 297.358 31.0052C299.143 30.0604 300.892 29.5879 302.607 29.5879C304.217 29.5879 305.424 30.1129 306.229 31.1627C307.069 32.2126 307.559 33.5599 307.699 35.2046L309.484 30.3228H312.948L306.387 48.9576C306.247 49.4825 306.124 49.9549 306.019 50.3749C305.914 50.7598 305.862 51.0923 305.862 51.3722C305.862 52.0721 306.142 52.4221 306.702 52.4221C307.471 52.4221 308.224 52.0196 308.959 51.2148C309.694 50.4099 310.289 49.6225 310.743 48.8526L311.688 49.4825C311.023 50.5674 310.166 51.6172 309.116 52.632C308.066 53.6469 306.789 54.1543 305.284 54.1543C304.199 54.1543 303.43 53.8919 302.975 53.3669C302.555 52.842 302.345 52.1421 302.345 51.2673C302.345 50.6023 302.45 49.85 302.66 49.0101C301.505 50.6198 300.228 51.8797 298.828 52.7895C297.428 53.6994 295.941 54.1543 294.366 54.1543ZM294.891 52.7895C296.885 52.7895 298.758 51.8447 300.507 49.9549C302.257 48.0302 303.762 45.5106 305.022 42.3961L305.652 40.6113C306.247 38.8616 306.544 37.2518 306.544 35.782C306.544 34.3472 306.247 33.1924 305.652 32.3175C305.057 31.4077 304.147 30.9527 302.922 30.9527C301.522 30.9527 300.123 31.4952 298.723 32.58C297.358 33.6298 296.098 35.0121 294.943 36.7269C293.823 38.4416 292.914 40.2789 292.214 42.2386C291.549 44.1633 291.216 46.018 291.216 47.8028C291.216 49.4475 291.549 50.6898 292.214 51.5297C292.879 52.3696 293.771 52.7895 294.891 52.7895Z" fill="#673E2C"/>
</svg>
