<svg width="185" height="43" viewBox="0 0 185 43" fill="none" xmlns="http://www.w3.org/2000/svg">
<path d="M36.6279 25.5159C38.3102 25.2516 46.1827 22.3377 51.0899 26.8492C49.5861 31.4643 41.5662 33.1984 41.5662 33.1984" stroke="white" stroke-width="1.8"/>
<path d="M24.2397 22.5741C20.5927 18.9498 20.7727 10.5738 25.2703 11.0705C27.4109 11.3068 30.82 16.8218 24.6361 23.0465L23.209 24.3071L21.0352 26.3073" stroke="white" stroke-width="1.8"/>
<path d="M28.8668 39.5476C31.1732 40.3164 36.9822 40.3135 39.7219 36.7318C39.8977 36.5021 40.0049 36.2191 39.9779 35.9312C39.6792 32.746 32.8112 32.1133 26.8916 35.8844" stroke="white" stroke-width="1.8"/>
<path d="M23.8431 32.186L27.2522 35.3376C23.4467 40.7741 11.6338 42.5863 11.6338 35.7316" stroke="white" stroke-width="1.8"/>
<path d="M1.08984 26.0406C6.63952 36.2832 18.7695 34.7862 23.0507 32.5801C21.7822 28.7982 13.537 24.9376 9.73149 24.2284C3.23043 23.5981 1.08984 26.0406 1.08984 26.0406Z" stroke="white" stroke-width="1.8"/>
<path d="M32.9453 12.9326C34.5525 11.8797 37.8931 9.74989 42.582 9.96973C42.8914 10.5613 43.1024 11.3678 43.1689 12.3604C43.2488 13.552 43.1196 14.9405 42.7744 16.3867C42.0811 19.2906 40.5501 22.3067 38.3018 24.3506C37.2774 25.2816 35.4544 25.9786 33.5078 26.4658C32.2397 26.7832 30.9885 26.994 30.0039 27.1309C30.7788 25.9193 31.7883 24.128 32.5264 22.0352C33.4676 19.366 34.0024 16.1109 32.9453 12.9326Z" stroke="white" stroke-width="1.8"/>
<path d="M25.1738 1.52441C28.6008 4.07877 32.2499 8.95272 33.2344 14.5508C34.2349 20.2404 32.4597 26.5736 25.2119 31.8301C24.4142 32.4083 23.3315 32.2985 22.6475 31.6387C20.7322 29.7912 16.5816 26.2198 10.9023 24.54L10.6748 24.4727L10.5098 24.3018C8.6124 22.3342 4.72407 17.0656 6.56445 10.3594L6.74609 9.69824H7.43164C9.73463 9.69824 13.5664 10.6575 16.1201 12.5186L16.4814 12.7822C17.3447 8.96357 19.5357 4.93355 24.0967 1.52539L24.6348 1.12305L25.1738 1.52441Z" stroke="white" stroke-width="1.8"/>
<path d="M55.3201 31.3385L55.5972 30.5687L56.2746 30.5072C57.3009 30.4045 58.0706 30.1377 58.5837 29.7067C59.1174 29.2756 59.569 28.5059 59.9384 27.3975L65.0801 11.8492C65.1417 11.6029 65.1725 11.3976 65.1725 11.2334C65.1725 10.8845 64.998 10.6382 64.6491 10.4945C64.3207 10.3303 63.7357 10.2072 62.8941 10.125L62.3092 10.0635L62.5863 9.29375L67.1122 9.38612H67.4509L70.4374 9.35533C73.1673 9.31428 75.1891 9.79664 76.5027 10.8024C77.8369 11.8082 78.504 13.1423 78.504 14.8049C78.504 16.1802 78.1038 17.4117 77.3033 18.4996C76.5027 19.5669 75.3225 20.4085 73.7626 21.0242C72.2231 21.64 70.3142 21.9479 68.0359 21.9479C67.5843 21.9479 67.0814 21.9376 66.5272 21.9171C65.9935 21.8761 65.2443 21.8145 64.2796 21.7324L62.1244 28.2904C62.0423 28.4956 61.9807 28.7009 61.9397 28.9062C61.9192 29.0909 61.9089 29.2551 61.9089 29.3988C61.9089 29.7682 62.0936 30.0248 62.4631 30.1685C62.8326 30.3122 63.4894 30.4353 64.4336 30.538L65.0186 30.5995L64.7415 31.3385L59.9076 31.2461L55.3201 31.3385ZM68.0666 10.2174L64.5567 20.8703C65.5009 20.9114 66.1988 20.9421 66.6504 20.9627C67.1019 20.9832 67.4201 20.9935 67.6048 20.9935C69.1853 20.9935 70.499 20.7985 71.5458 20.4085C72.6131 20.0185 73.4547 19.5156 74.0704 18.8998C74.7067 18.2635 75.1583 17.5759 75.4251 16.837C75.7125 16.0775 75.8562 15.3489 75.8562 14.651C75.8562 13.2142 75.3636 12.1161 74.3783 11.3566C73.4136 10.5971 72.1615 10.2174 70.6221 10.2174H68.0666ZM76.9028 31.2461L80.7206 20.6548C80.9669 19.9774 81.0592 19.4848 80.9977 19.1769C80.9566 18.8485 80.7616 18.6433 80.4127 18.5612C80.0843 18.479 79.5916 18.438 78.9348 18.438L79.1811 17.6991L83.3992 17.6067L82.0445 22.1326C82.496 21.2706 82.9784 20.47 83.4915 19.7311C84.0252 18.9922 84.6102 18.3969 85.2465 17.9454C85.9033 17.4938 86.6115 17.268 87.3709 17.268C87.9046 17.268 88.428 17.4322 88.9411 17.7606C89.4543 18.0891 89.7109 18.6125 89.7109 19.3309C89.7109 19.6388 89.6082 19.9466 89.403 20.2545C89.2182 20.5624 88.8898 20.7164 88.4177 20.7164C88.0277 20.7164 87.7301 20.6137 87.5249 20.4085C87.3196 20.1827 87.1657 19.844 87.063 19.3924C86.9399 18.7767 86.632 18.4688 86.1394 18.4688C85.7494 18.4688 85.3286 18.6535 84.877 19.023C84.446 19.3924 83.9636 19.998 83.43 20.8395C83.081 21.4142 82.7116 22.1019 82.3216 22.9024C81.9316 23.6823 81.5416 24.5957 81.1516 25.6426L79.1195 31.2461H76.9028ZM93.6102 31.6771C92.6455 31.6771 91.8552 31.4821 91.2395 31.0922C90.6237 30.6816 90.1721 30.148 89.8848 29.4911C89.5974 28.8138 89.4537 28.0954 89.4537 27.3359C89.4537 26.0428 89.7308 24.7907 90.285 23.5797C90.8392 22.3687 91.5576 21.2911 92.4402 20.3469C93.3434 19.4027 94.3183 18.6535 95.3652 18.0993C96.412 17.5451 97.4383 17.268 98.444 17.268C99.3882 17.268 100.096 17.5759 100.568 18.1917C101.061 18.8075 101.348 19.5977 101.431 20.5624L102.477 17.6991H104.509L100.661 28.6291C100.579 28.9369 100.507 29.214 100.445 29.4603C100.384 29.6861 100.353 29.8811 100.353 30.0453C100.353 30.4559 100.517 30.6611 100.846 30.6611C101.297 30.6611 101.738 30.4251 102.169 29.953C102.6 29.4809 102.949 29.019 103.216 28.5675L103.77 28.9369C103.38 29.5732 102.878 30.189 102.262 30.7843C101.646 31.3795 100.897 31.6771 100.014 31.6771C99.3779 31.6771 98.9264 31.5232 98.6595 31.2153C98.4132 30.9074 98.2901 30.4969 98.2901 29.9838C98.2901 29.5938 98.3517 29.1525 98.4748 28.6598C97.7975 29.604 97.0483 30.343 96.2272 30.8766C95.4062 31.4103 94.5339 31.6771 93.6102 31.6771ZM93.9181 30.8766C95.0881 30.8766 96.1862 30.3224 97.2125 29.214C98.2388 28.0851 99.1214 26.6073 99.8603 24.7805L100.23 23.7337C100.579 22.7074 100.753 21.7632 100.753 20.9011C100.753 20.0595 100.579 19.3822 100.23 18.869C99.8808 18.3354 99.3472 18.0685 98.6288 18.0685C97.8077 18.0685 96.9867 18.3867 96.1657 19.023C95.3652 19.6388 94.6262 20.4495 93.9489 21.4553C93.292 22.4611 92.7584 23.5387 92.3479 24.6881C91.9579 25.817 91.7629 26.9049 91.7629 27.9517C91.7629 28.9164 91.9579 29.6451 92.3479 30.1377C92.7379 30.6303 93.2613 30.8766 93.9181 30.8766ZM116.185 31.6771C115.548 31.6771 115.097 31.5232 114.83 31.2153C114.584 30.9074 114.46 30.5072 114.46 30.0145C114.46 29.7067 114.501 29.368 114.584 28.9985C114.666 28.6291 114.779 28.2493 114.922 27.8593L117.601 20.2853C117.827 19.6285 117.857 19.0948 117.693 18.6843C117.529 18.2533 117.149 18.0377 116.554 18.0377C116 18.0377 115.415 18.2122 114.799 18.5612C114.183 18.8896 113.588 19.3206 113.013 19.8543C112.439 20.3879 111.936 20.9627 111.505 21.5784C111.074 22.1942 110.755 22.7792 110.55 23.3334L107.687 31.2461H105.47L109.288 20.6548C109.637 19.649 109.668 19.0332 109.38 18.8075C109.093 18.5612 108.467 18.438 107.502 18.438L107.748 17.6991L112.274 17.6067L111.289 20.9011C111.741 20.2648 112.264 19.6798 112.859 19.1461C113.475 18.5919 114.142 18.1404 114.861 17.7914C115.6 17.4425 116.39 17.268 117.231 17.268C118.483 17.268 119.294 17.5964 119.664 18.2533C120.033 18.9101 120.002 19.844 119.571 21.055L116.8 28.783C116.657 29.214 116.575 29.6348 116.554 30.0453C116.554 30.4559 116.728 30.6611 117.077 30.6611C117.55 30.6611 117.981 30.4456 118.371 30.0145C118.781 29.563 119.12 29.1114 119.387 28.6598L119.941 29.0293C119.551 29.6656 119.048 30.2711 118.432 30.8458C117.816 31.4 117.067 31.6771 116.185 31.6771ZM126.534 31.6771C125.569 31.6771 124.779 31.4821 124.163 31.0922C123.547 30.6816 123.096 30.148 122.808 29.4911C122.521 28.8138 122.377 28.0954 122.377 27.3359C122.377 26.0428 122.654 24.7907 123.208 23.5797C123.763 22.3687 124.481 21.2911 125.364 20.3469C126.267 19.4027 127.242 18.6535 128.289 18.0993C129.335 17.5451 130.362 17.268 131.367 17.268C132.312 17.268 133.02 17.5759 133.492 18.1917C133.985 18.8075 134.272 19.5977 134.354 20.5624L135.401 17.6991H137.433L133.584 28.6291C133.502 28.9369 133.43 29.214 133.369 29.4603C133.307 29.6861 133.276 29.8811 133.276 30.0453C133.276 30.4559 133.441 30.6611 133.769 30.6611C134.221 30.6611 134.662 30.4251 135.093 29.953C135.524 29.4809 135.873 29.019 136.14 28.5675L136.694 28.9369C136.304 29.5732 135.801 30.189 135.185 30.7843C134.57 31.3795 133.82 31.6771 132.938 31.6771C132.301 31.6771 131.85 31.5232 131.583 31.2153C131.337 30.9074 131.214 30.4969 131.214 29.9838C131.214 29.5938 131.275 29.1525 131.398 28.6598C130.721 29.604 129.972 30.343 129.151 30.8766C128.33 31.4103 127.457 31.6771 126.534 31.6771ZM126.842 30.8766C128.012 30.8766 129.11 30.3224 130.136 29.214C131.162 28.0851 132.045 26.6073 132.784 24.7805L133.153 23.7337C133.502 22.7074 133.677 21.7632 133.677 20.9011C133.677 20.0595 133.502 19.3822 133.153 18.869C132.804 18.3354 132.271 18.0685 131.552 18.0685C130.731 18.0685 129.91 18.3867 129.089 19.023C128.289 19.6388 127.55 20.4495 126.872 21.4553C126.216 22.4611 125.682 23.5387 125.271 24.6881C124.881 25.817 124.686 26.9049 124.686 27.9517C124.686 28.9164 124.881 29.6451 125.271 30.1377C125.661 30.6303 126.185 30.8766 126.842 30.8766ZM143.351 31.5848C143.145 30.6201 142.868 29.7374 142.519 28.9369C142.17 28.1364 141.832 27.3872 141.503 26.6894C141.195 26.012 140.928 25.3655 140.703 24.7497C140.477 24.1134 140.364 23.4668 140.364 22.81C140.364 21.7837 140.692 20.9216 141.349 20.2237C142.006 19.5053 142.817 18.8485 143.782 18.2533L140.61 18.438L140.887 17.6991L145.567 17.4528L145.721 17.9762C145.372 18.1404 144.972 18.3559 144.521 18.6227C144.089 18.8896 143.71 19.2693 143.381 19.7619C143.073 20.234 142.919 20.8908 142.919 21.7324C142.919 22.5739 143.032 23.4463 143.258 24.3494C143.484 25.2526 143.771 26.3096 144.12 27.5207L144.767 29.5835L148.431 25.3039C149.087 24.5649 149.601 23.8465 149.97 23.1487C150.34 22.4508 150.524 21.8453 150.524 21.3321C150.524 20.86 150.452 20.47 150.309 20.1622C150.165 19.8338 150.011 19.5464 149.847 19.3001C149.703 19.0332 149.631 18.7767 149.631 18.5304C149.631 18.243 149.765 17.9659 150.032 17.6991C150.299 17.4117 150.637 17.268 151.048 17.268C151.52 17.268 151.92 17.4733 152.248 17.8838C152.597 18.2943 152.772 18.8588 152.772 19.5772C152.772 20.5214 152.433 21.4553 151.756 22.3789C151.099 23.2821 150.299 24.2673 149.354 25.3347L143.874 31.5848H143.351ZM151.152 40.1748C150.496 40.1748 149.972 40.0209 149.582 39.713C149.172 39.4051 148.966 39.0254 148.966 38.5738C148.966 38.1017 149.131 37.7322 149.459 37.4654C149.767 37.1986 150.147 37.0652 150.598 37.0652C150.988 37.0652 151.337 37.178 151.645 37.4038C151.932 37.6296 152.24 37.8554 152.569 38.0812C152.877 38.3275 153.266 38.4506 153.739 38.4506C154.395 38.4506 155.052 38.0914 155.709 37.373L158.234 34.6944C158.583 34.3455 158.87 33.9555 159.096 33.5245C159.342 33.0934 159.465 32.6521 159.465 32.2005C159.465 31.5848 159.301 30.9382 158.973 30.2609C158.644 29.563 158.244 28.8548 157.772 28.1364C157.197 27.2333 156.664 26.3199 156.171 25.3962C155.678 24.4521 155.432 23.5489 155.432 22.6868C155.432 21.599 155.75 20.7266 156.386 20.0698C157.043 19.413 157.813 18.8075 158.696 18.2533L155.524 18.438L155.771 17.6991L160.481 17.4528L160.635 17.9762C159.588 18.4893 158.88 19.023 158.511 19.5772C158.141 20.1314 157.957 20.7779 157.957 21.5169C157.957 22.1532 158.059 22.8408 158.265 23.5797C158.49 24.3186 158.757 25.0473 159.065 25.7657C159.373 26.4841 159.65 27.1615 159.896 27.7978L161.189 30.969L162.606 29.214C163.591 27.9825 164.289 26.9152 164.699 26.012C165.13 25.1089 165.387 24.3494 165.469 23.7337C165.572 23.1179 165.623 22.6458 165.623 22.3174C165.623 21.8658 165.561 21.4656 165.438 21.1166C165.315 20.7677 165.089 20.429 164.761 20.1006C164.535 19.8748 164.33 19.6593 164.145 19.454C163.981 19.2488 163.899 18.9819 163.899 18.6535C163.899 18.3867 164.032 18.0891 164.299 17.7606C164.566 17.4322 164.915 17.268 165.346 17.268C165.756 17.268 166.146 17.5041 166.516 17.9762C166.885 18.4483 167.07 19.2385 167.07 20.3469C167.07 21.5374 166.834 22.8613 166.362 24.3186C165.89 25.7554 164.925 27.3872 163.468 29.214L159.096 34.6329C157.885 36.1518 156.838 37.3115 155.955 38.112C155.093 38.9125 154.293 39.4564 153.554 39.7438C152.815 40.0311 152.014 40.1748 151.152 40.1748ZM172.657 31.6771C171.692 31.6771 170.902 31.4821 170.286 31.0922C169.67 30.6816 169.218 30.148 168.931 29.4911C168.644 28.8138 168.5 28.0954 168.5 27.3359C168.5 26.0428 168.777 24.7907 169.331 23.5797C169.886 22.3687 170.604 21.2911 171.487 20.3469C172.39 19.4027 173.365 18.6535 174.412 18.0993C175.458 17.5451 176.485 17.268 177.49 17.268C178.435 17.268 179.143 17.5759 179.615 18.1917C180.107 18.8075 180.395 19.5977 180.477 20.5624L181.524 17.6991H183.556L179.707 28.6291C179.625 28.9369 179.553 29.214 179.492 29.4603C179.43 29.6861 179.399 29.8811 179.399 30.0453C179.399 30.4559 179.563 30.6611 179.892 30.6611C180.343 30.6611 180.785 30.4251 181.216 29.953C181.647 29.4809 181.996 29.019 182.263 28.5675L182.817 28.9369C182.427 29.5732 181.924 30.189 181.308 30.7843C180.692 31.3795 179.943 31.6771 179.061 31.6771C178.424 31.6771 177.973 31.5232 177.706 31.2153C177.46 30.9074 177.336 30.4969 177.336 29.9838C177.336 29.5938 177.398 29.1525 177.521 28.6598C176.844 29.604 176.095 30.343 175.274 30.8766C174.453 31.4103 173.58 31.6771 172.657 31.6771ZM172.964 30.8766C174.134 30.8766 175.233 30.3224 176.259 29.214C177.285 28.0851 178.168 26.6073 178.907 24.7805L179.276 23.7337C179.625 22.7074 179.8 21.7632 179.8 20.9011C179.8 20.0595 179.625 19.3822 179.276 18.869C178.927 18.3354 178.394 18.0685 177.675 18.0685C176.854 18.0685 176.033 18.3867 175.212 19.023C174.412 19.6388 173.673 20.4495 172.995 21.4553C172.338 22.4611 171.805 23.5387 171.394 24.6881C171.004 25.817 170.809 26.9049 170.809 27.9517C170.809 28.9164 171.004 29.6451 171.394 30.1377C171.784 30.6303 172.308 30.8766 172.964 30.8766Z" fill="white"/>
</svg>
