<svg width="23" height="23" viewBox="0 0 23 23" fill="none" xmlns="http://www.w3.org/2000/svg">
<path d="M15.473 16.888C13.7839 18.2576 11.6746 19.0034 9.5 19C7.62108 19 5.78435 18.4428 4.22209 17.399C2.65982 16.3551 1.44218 14.8714 0.723149 13.1355C0.00411618 11.3996 -0.184015 9.48947 0.182544 7.64665C0.549104 5.80383 1.45389 4.11109 2.78249 2.78249C4.11109 1.45389 5.80383 0.549104 7.64665 0.182544C9.48947 -0.184015 11.3996 0.00411618 13.1355 0.723149C14.8714 1.44218 16.3551 2.65982 17.399 4.22209C18.4428 5.78435 19 7.62108 19 9.5C19.0032 11.6747 18.2569 13.7841 16.887 15.473L22.707 21.293C22.8892 21.4816 22.99 21.7342 22.9877 21.9964C22.9854 22.2586 22.8802 22.5094 22.6948 22.6948C22.5094 22.8802 22.2586 22.9854 21.9964 22.9877C21.7342 22.99 21.4816 22.8892 21.293 22.707L15.473 16.888ZM17 9.5C17 7.51088 16.2098 5.60323 14.8033 4.1967C13.3968 2.79018 11.4891 2 9.5 2C7.51088 2 5.60323 2.79018 4.1967 4.1967C2.79018 5.60323 2 7.51088 2 9.5C2 11.4891 2.79018 13.3968 4.1967 14.8033C5.60323 16.2098 7.51088 17 9.5 17C11.4891 17 13.3968 16.2098 14.8033 14.8033C16.2098 13.3968 17 11.4891 17 9.5Z" fill="#673E2C"/>
</svg>
