<svg width="308" height="71" viewBox="0 0 308 71" fill="none" xmlns="http://www.w3.org/2000/svg">
<path d="M43.4229 2.10449C47.5054 4.40807 54.3736 10.9255 57.9463 20.998L58.377 22.2129L59.3984 21.4258C61.1503 20.0765 66.6761 17.1533 75.3916 16.6982C75.8746 19.0924 76.2172 22.75 75.7617 26.7012C75.2559 31.0891 73.7786 35.7632 70.5098 39.4854L68.9541 41.2568L71.3008 41.0332C72.8746 40.8835 75.5187 40.844 78.3457 41.3477C80.954 41.8124 83.6492 42.7293 85.8135 44.3838C84.0393 47.8999 79.0343 54.7597 69.9912 57.8877L69.8662 57.7295C71.9499 56.7374 74.7153 55.2241 77.3008 53.3965C80.3326 51.2534 83.2853 48.5672 84.4629 45.6777L84.7256 45.0342L84.1855 44.5977C82.5898 43.307 79.2512 41.9245 74.9141 41.5967C70.5415 41.2662 65.0886 42.0005 59.2412 45.0303L59.21 45.0469L59.1797 45.0654L43.8389 54.5732L42.6885 55.2861L43.7627 56.1104L48.8291 59.9941L49.3799 60.416L49.9443 60.0107C51.8879 58.6136 57.2035 56.0303 64.1523 58.2607C65.2528 58.667 66.6575 59.5382 67.418 60.7734C67.7891 61.3763 68.0063 62.0615 67.9746 62.8428C67.943 63.62 67.661 64.5566 66.9365 65.6611C64.99 68.0401 58.4394 71.877 47.9385 66.6807L48.5381 66.1494C49.9298 66.8894 51.965 67.7395 54.2031 68.2334C56.7519 68.7958 59.6913 68.9238 62.249 67.7627C63.0659 67.5265 64.2272 67.0282 65.1885 66.2373C66.1837 65.4185 67.088 64.174 66.9365 62.5146L66.9277 62.4229L66.9023 62.334L66.8369 62.1387C66.0888 60.1032 62.8972 57.6022 56.043 58.4561C53.9807 58.6159 49.2191 59.8604 45.6719 63.6455C43.7305 65.2036 40.3022 67.2729 36.3428 68.3984C32.3583 69.5311 27.9383 69.6833 23.9463 67.5342L23.877 67.4971L23.8018 67.4717L23.5742 67.3828C22.4597 66.8983 20.452 65.3151 20.123 62.0615H20.54C21.0357 64.8724 23.7293 67.6036 27.96 68.335C32.6945 69.1533 39.3616 67.5231 47.584 61.0576L48.5273 60.3154L47.5771 59.582L42.3701 55.5654L41.8955 55.1992L41.3652 55.4766C37.1902 57.6571 30.1165 59.6846 22.5615 58.6367C15.2555 57.6233 7.44411 53.7279 1.30469 44.168C4.02378 42.6786 9.8688 40.4751 16.5283 41.0342L19.4463 41.2793L17.2109 39.3877C14.1306 36.7823 8.60539 28.5454 11.6875 16.6826C15.0133 16.8212 21.8124 17.9103 27.8086 21.4883L28.9014 22.1396L29.1973 20.9043C29.1973 20.9041 29.1969 20.9028 29.1973 20.9014C29.198 20.8984 29.2002 20.8934 29.2021 20.8857C29.2062 20.8699 29.2121 20.8438 29.2217 20.8086C29.2408 20.7381 29.2715 20.6292 29.3154 20.4854C29.4033 20.1976 29.5445 19.7693 29.7529 19.2236C30.17 18.1317 30.8572 16.5709 31.9287 14.7275C34.0153 11.138 37.5615 6.47252 43.4229 2.10449Z" fill="white" stroke="white" stroke-width="1.87042"/>
<path d="M30.9637 43.3163C26.235 36.0315 26.8354 26.8005 27.7268 23.0956C24.3494 20.096 16.3741 18.5427 12.8086 18.1409C10.1065 29.4966 16.3739 38.0491 19.8454 40.9059C28.8525 43.7984 38.5163 50.7707 42.2224 53.8953C51.2293 49.503 55.2638 40.9952 56.1552 37.2903C61.5595 20.5781 49.869 8.09755 43.3483 3.94629C25.3339 16.1322 28.7587 35.0138 32.6524 42.5128C32.4272 43.2627 31.4328 43.3609 30.9637 43.3163Z" fill="#2D2D2D" stroke="white" stroke-width="1.87042"/>
<path d="M67.1302 40.7717C63.077 41.4145 57.7478 44.3427 55.5898 45.7264C60.6563 37.4775 60.2341 27.202 59.3897 23.0954C61.8667 20.5243 70.2733 18.7209 74.167 18.1406C76.6439 29.4963 70.5078 37.9595 67.1302 40.7717Z" fill="#2D2D2D" stroke="white" stroke-width="1.87042"/>
<path d="M33.9169 50.6819C20.5189 39.5404 7.69318 42.2008 2.95508 44.9237C14.6643 60.3503 32.1343 58.2702 39.4056 55.1009C37.8294 53.6011 35.0897 51.53 33.9169 50.6819Z" fill="#2D2D2D" stroke="white" stroke-width="1.87042"/>
<path d="M43.6357 17.9072C44.8136 17.8945 46.1245 18.2074 47.2871 18.9473C49.5363 20.3787 51.4853 23.5942 50.4033 29.9004L50.3975 29.9336C50.2175 31.2651 49.1649 33.8526 46.7666 36.7812C44.4739 39.5809 40.9888 42.6377 35.9951 45.1406L35.0137 44.2588C36.9638 43.306 39.7408 41.5941 42.2432 39.3213L42.9414 38.6875L42.3008 37.9941C40.6949 36.2567 38.6345 32.8264 37.8682 29.1006C37.1082 25.4058 37.6374 21.5708 40.957 18.7158C41.479 18.2669 42.4366 17.9203 43.6357 17.9072Z" stroke="white" stroke-width="1.87042"/>
<path d="M97.4706 54.156V52.856L98.5106 52.752C99.724 52.6133 100.643 52.44 101.267 52.232C101.925 51.9893 102.376 51.504 102.619 50.776C102.861 50.0133 102.983 48.7827 102.983 47.084V23.996C102.983 22.2627 102.861 21.032 102.619 20.304C102.376 19.576 101.925 19.108 101.267 18.9C100.643 18.6573 99.724 18.4667 98.5106 18.328L97.4706 18.224V16.924L105.167 17.08H112.239C114.319 17.08 116.26 17.2187 118.063 17.496C119.865 17.7387 121.443 18.224 122.795 18.952C124.147 19.6453 125.204 20.668 125.967 22.02C126.729 23.372 127.111 25.1227 127.111 27.272C127.111 30.3573 125.949 32.8533 123.627 34.76C121.304 36.6667 117.924 37.62 113.487 37.62H107.403V47.084C107.403 48.7827 107.541 50.0133 107.819 50.776C108.131 51.504 108.668 51.9893 109.431 52.232C110.193 52.44 111.268 52.6133 112.655 52.752L113.799 52.856V54.156L105.011 54L97.4706 54.156ZM114.267 18.536H107.403V36.06H113.487C115.879 36.06 117.699 35.7133 118.947 35.02C120.195 34.3267 121.044 33.3213 121.495 32.004C121.945 30.6867 122.171 29.1093 122.171 27.272C122.171 25.296 121.911 23.736 121.391 22.592C120.905 21.4133 120.247 20.5293 119.415 19.94C118.617 19.3507 117.751 18.9693 116.815 18.796C115.913 18.6227 115.064 18.536 114.267 18.536ZM129.854 54.156V52.96L130.686 52.856C131.692 52.7173 132.454 52.5613 132.974 52.388C133.529 52.18 133.91 51.7467 134.118 51.088C134.326 50.3947 134.43 49.268 134.43 47.708V36.892C134.43 35.54 134.24 34.552 133.858 33.928C133.512 33.304 132.992 32.9227 132.298 32.784C131.605 32.6107 130.79 32.524 129.854 32.524V31.328C131.276 31.328 132.645 31.276 133.962 31.172C135.28 31.068 136.649 30.912 138.07 30.704L137.498 36.684H137.706C138.469 34.3613 139.405 32.732 140.514 31.796C141.624 30.86 142.82 30.392 144.102 30.392C145.558 30.392 146.529 30.756 147.014 31.484C147.5 32.1773 147.742 32.8533 147.742 33.512C147.742 34.2747 147.517 34.8987 147.066 35.384C146.616 35.8693 146.009 36.112 145.246 36.112C144.518 36.112 143.964 35.9387 143.582 35.592C143.201 35.2453 143.01 34.8467 143.01 34.396C143.01 34.0493 143.045 33.72 143.114 33.408C143.218 33.096 143.27 32.8533 143.27 32.68C143.27 32.3333 143.028 32.16 142.542 32.16C142.057 32.16 141.537 32.3853 140.982 32.836C140.462 33.2867 140.012 33.9107 139.63 34.708C139.318 35.3667 139.024 36.0947 138.746 36.892C138.469 37.6893 138.244 38.556 138.07 39.492V47.708C138.07 49.268 138.174 50.3947 138.382 51.088C138.59 51.7467 138.954 52.18 139.474 52.388C140.029 52.5613 140.809 52.7173 141.814 52.856L142.646 52.96V54.156L136.25 54L129.854 54.156ZM156.626 54.572C154.962 54.572 153.575 54.156 152.466 53.324C151.391 52.4573 150.854 51.2613 150.854 49.736C150.854 48.2107 151.53 46.8587 152.882 45.68C154.234 44.4667 155.811 43.3747 157.614 42.404C158.966 41.6413 160.318 40.9827 161.67 40.428C163.022 39.8733 164.183 39.4053 165.154 39.024V37.36C165.154 35.4533 164.79 34.032 164.062 33.096C163.369 32.16 162.034 31.692 160.058 31.692C159.122 31.692 158.203 31.8133 157.302 32.056C156.401 32.2987 155.95 32.7493 155.95 33.408C155.95 33.5467 155.967 33.7027 156.002 33.876C156.071 34.0493 156.123 34.2227 156.158 34.396C156.331 34.8467 156.418 35.3147 156.418 35.8C156.418 36.4587 156.175 36.9787 155.69 37.36C155.239 37.7067 154.685 37.88 154.026 37.88C153.402 37.88 152.882 37.6547 152.466 37.204C152.05 36.7187 151.842 36.1467 151.842 35.488C151.842 34.24 152.31 33.252 153.246 32.524C154.217 31.7613 155.395 31.224 156.782 30.912C158.169 30.5653 159.503 30.392 160.786 30.392C163.559 30.392 165.587 31.0333 166.87 32.316C168.153 33.5987 168.794 35.696 168.794 38.608V47.968C168.794 49.4933 168.898 50.672 169.106 51.504C169.349 52.336 169.869 52.752 170.666 52.752C171.186 52.752 171.637 52.5613 172.018 52.18C172.399 51.7987 172.659 51.3827 172.798 50.932L173.734 51.296C173.457 52.3013 172.954 53.0987 172.226 53.688C171.533 54.2773 170.562 54.572 169.314 54.572C167.789 54.572 166.731 54.1387 166.142 53.272C165.587 52.3707 165.275 51.192 165.206 49.736C164.235 51.296 163.005 52.492 161.514 53.324C160.023 54.156 158.394 54.572 156.626 54.572ZM154.91 49.476C154.91 50.4467 155.187 51.2267 155.742 51.816C156.331 52.3707 157.181 52.648 158.29 52.648C159.295 52.648 160.249 52.4053 161.15 51.92C162.086 51.4347 162.901 50.828 163.594 50.1C164.287 49.3373 164.807 48.5227 165.154 47.656V40.064C164.01 40.5493 162.831 41.1213 161.618 41.78C160.439 42.404 159.33 43.1147 158.29 43.912C157.285 44.7093 156.47 45.576 155.846 46.512C155.222 47.4133 154.91 48.4013 154.91 49.476ZM175.202 54.156V52.96L176.034 52.856C177.039 52.7173 177.802 52.5613 178.322 52.388C178.877 52.18 179.258 51.7467 179.466 51.088C179.674 50.3947 179.778 49.268 179.778 47.708V36.736C179.778 34.9333 179.397 33.7893 178.634 33.304C177.906 32.784 176.883 32.524 175.566 32.524H175.202V31.328C176.623 31.328 177.993 31.2933 179.31 31.224C180.627 31.12 181.997 30.9467 183.418 30.704V34.916C184.215 33.7373 185.342 32.6973 186.798 31.796C188.254 30.86 189.953 30.392 191.894 30.392C194.251 30.392 196.106 30.9987 197.458 32.212C198.845 33.3907 199.538 35.0893 199.538 37.308V47.708C199.538 49.268 199.642 50.3947 199.85 51.088C200.058 51.7467 200.422 52.18 200.942 52.388C201.497 52.5613 202.277 52.7173 203.282 52.856L204.114 52.96V54.156L197.718 54L191.322 54.156V52.96L192.154 52.856C193.159 52.7173 193.922 52.5613 194.442 52.388C194.997 52.18 195.378 51.7467 195.586 51.088C195.794 50.3947 195.898 49.268 195.898 47.708V37.308C195.898 35.5747 195.447 34.2573 194.546 33.356C193.645 32.42 192.379 31.952 190.75 31.952C189.502 31.952 188.375 32.2467 187.37 32.836C186.365 33.3907 185.533 34.084 184.874 34.916C184.215 35.748 183.73 36.5453 183.418 37.308V47.708C183.418 49.268 183.522 50.3947 183.73 51.088C183.938 51.7467 184.302 52.18 184.822 52.388C185.377 52.5613 186.157 52.7173 187.162 52.856L187.994 52.96V54.156L181.598 54L175.202 54.156ZM213.044 54.572C211.38 54.572 209.993 54.156 208.884 53.324C207.809 52.4573 207.272 51.2613 207.272 49.736C207.272 48.2107 207.948 46.8587 209.3 45.68C210.652 44.4667 212.229 43.3747 214.032 42.404C215.384 41.6413 216.736 40.9827 218.088 40.428C219.44 39.8733 220.601 39.4053 221.572 39.024V37.36C221.572 35.4533 221.208 34.032 220.48 33.096C219.787 32.16 218.452 31.692 216.476 31.692C215.54 31.692 214.621 31.8133 213.72 32.056C212.819 32.2987 212.368 32.7493 212.368 33.408C212.368 33.5467 212.385 33.7027 212.42 33.876C212.489 34.0493 212.541 34.2227 212.576 34.396C212.749 34.8467 212.836 35.3147 212.836 35.8C212.836 36.4587 212.593 36.9787 212.108 37.36C211.657 37.7067 211.103 37.88 210.444 37.88C209.82 37.88 209.3 37.6547 208.884 37.204C208.468 36.7187 208.26 36.1467 208.26 35.488C208.26 34.24 208.728 33.252 209.664 32.524C210.635 31.7613 211.813 31.224 213.2 30.912C214.587 30.5653 215.921 30.392 217.204 30.392C219.977 30.392 222.005 31.0333 223.288 32.316C224.571 33.5987 225.212 35.696 225.212 38.608V47.968C225.212 49.4933 225.316 50.672 225.524 51.504C225.767 52.336 226.287 52.752 227.084 52.752C227.604 52.752 228.055 52.5613 228.436 52.18C228.817 51.7987 229.077 51.3827 229.216 50.932L230.152 51.296C229.875 52.3013 229.372 53.0987 228.644 53.688C227.951 54.2773 226.98 54.572 225.732 54.572C224.207 54.572 223.149 54.1387 222.56 53.272C222.005 52.3707 221.693 51.192 221.624 49.736C220.653 51.296 219.423 52.492 217.932 53.324C216.441 54.156 214.812 54.572 213.044 54.572ZM211.328 49.476C211.328 50.4467 211.605 51.2267 212.16 51.816C212.749 52.3707 213.599 52.648 214.708 52.648C215.713 52.648 216.667 52.4053 217.568 51.92C218.504 51.4347 219.319 50.828 220.012 50.1C220.705 49.3373 221.225 48.5227 221.572 47.656V40.064C220.428 40.5493 219.249 41.1213 218.036 41.78C216.857 42.404 215.748 43.1147 214.708 43.912C213.703 44.7093 212.888 45.576 212.264 46.512C211.64 47.4133 211.328 48.4013 211.328 49.476ZM241.564 54L233.088 35.28C232.776 34.5867 232.395 33.9973 231.944 33.512C231.494 33.0267 230.818 32.732 229.916 32.628L228.98 32.524V31.328L234.336 31.484L239.64 31.328V32.524L238.808 32.628C238.046 32.732 237.508 32.9227 237.196 33.2C236.884 33.4427 236.728 33.7893 236.728 34.24C236.728 34.6213 236.867 35.1413 237.144 35.8L243.696 50.256L249.78 36.008C250.092 35.3147 250.248 34.7427 250.248 34.292C250.248 33.3907 249.451 32.836 247.856 32.628L246.972 32.524V31.328L251.652 31.484L256.02 31.328V32.524L254.824 32.68C253.854 32.8187 253.108 33.2 252.588 33.824C252.068 34.4133 251.548 35.3147 251.028 36.528L243.54 54H241.564ZM257.988 69.288C256.809 69.288 255.925 68.9933 255.336 68.404C254.746 67.8493 254.452 67.2253 254.452 66.532C254.452 65.8387 254.712 65.2493 255.232 64.764C255.717 64.3133 256.341 64.088 257.104 64.088C257.589 64.088 257.97 64.1573 258.248 64.296C258.525 64.4693 258.785 64.6427 259.028 64.816C259.27 64.9893 259.548 65.1627 259.86 65.336C260.172 65.544 260.536 65.648 260.952 65.648C261.576 65.648 262.217 65.4053 262.876 64.92C263.569 64.4347 264.28 63.4293 265.008 61.904L268.44 54.52L259.808 35.592C259.461 34.7947 259.08 34.136 258.664 33.616C258.248 33.096 257.606 32.784 256.74 32.68L255.544 32.524V31.328L260.952 31.484L266.204 31.328V32.524L265.476 32.628C264.02 32.836 263.292 33.3733 263.292 34.24C263.292 34.656 263.482 35.28 263.864 36.112L270.364 50.36L276.864 36.372C277.245 35.5053 277.436 34.8293 277.436 34.344C277.436 33.408 276.586 32.836 274.888 32.628L274.056 32.524V31.328L279.048 31.484L283.208 31.328V32.524L282.428 32.628C281.145 32.8013 280.209 33.2693 279.62 34.032C279.065 34.7947 278.545 35.7307 278.06 36.84L266.308 62.476C265.753 63.6547 265.094 64.764 264.332 65.804C263.604 66.844 262.72 67.676 261.68 68.3C260.674 68.9587 259.444 69.288 257.988 69.288ZM290.028 54.572C288.364 54.572 286.978 54.156 285.868 53.324C284.794 52.4573 284.256 51.2613 284.256 49.736C284.256 48.2107 284.932 46.8587 286.284 45.68C287.636 44.4667 289.214 43.3747 291.016 42.404C292.368 41.6413 293.72 40.9827 295.072 40.428C296.424 39.8733 297.586 39.4053 298.556 39.024V37.36C298.556 35.4533 298.192 34.032 297.464 33.096C296.771 32.16 295.436 31.692 293.46 31.692C292.524 31.692 291.606 31.8133 290.704 32.056C289.803 32.2987 289.352 32.7493 289.352 33.408C289.352 33.5467 289.37 33.7027 289.404 33.876C289.474 34.0493 289.526 34.2227 289.56 34.396C289.734 34.8467 289.82 35.3147 289.82 35.8C289.82 36.4587 289.578 36.9787 289.092 37.36C288.642 37.7067 288.087 37.88 287.428 37.88C286.804 37.88 286.284 37.6547 285.868 37.204C285.452 36.7187 285.244 36.1467 285.244 35.488C285.244 34.24 285.712 33.252 286.648 32.524C287.619 31.7613 288.798 31.224 290.184 30.912C291.571 30.5653 292.906 30.392 294.188 30.392C296.962 30.392 298.99 31.0333 300.272 32.316C301.555 33.5987 302.196 35.696 302.196 38.608V47.968C302.196 49.4933 302.3 50.672 302.508 51.504C302.751 52.336 303.271 52.752 304.068 52.752C304.588 52.752 305.039 52.5613 305.42 52.18C305.802 51.7987 306.062 51.3827 306.2 50.932L307.136 51.296C306.859 52.3013 306.356 53.0987 305.628 53.688C304.935 54.2773 303.964 54.572 302.716 54.572C301.191 54.572 300.134 54.1387 299.544 53.272C298.99 52.3707 298.678 51.192 298.608 49.736C297.638 51.296 296.407 52.492 294.916 53.324C293.426 54.156 291.796 54.572 290.028 54.572ZM288.312 49.476C288.312 50.4467 288.59 51.2267 289.144 51.816C289.734 52.3707 290.583 52.648 291.692 52.648C292.698 52.648 293.651 52.4053 294.552 51.92C295.488 51.4347 296.303 50.828 296.996 50.1C297.69 49.3373 298.21 48.5227 298.556 47.656V40.064C297.412 40.5493 296.234 41.1213 295.02 41.78C293.842 42.404 292.732 43.1147 291.692 43.912C290.687 44.7093 289.872 45.576 289.248 46.512C288.624 47.4133 288.312 48.4013 288.312 49.476Z" fill="white"/>
</svg>
