<svg width="21" height="20" viewBox="0 0 21 20" fill="none" xmlns="http://www.w3.org/2000/svg">
<path d="M9.52387 0.639583C9.80099 -0.213301 11.0076 -0.213299 11.2847 0.639585L13.1062 6.24554C13.2301 6.62696 13.5856 6.88521 13.9866 6.88521H19.8811C20.7778 6.88521 21.1507 8.03275 20.4252 8.55986L15.6565 12.0245C15.332 12.2603 15.1963 12.6781 15.3202 13.0595L17.1417 18.6655C17.4188 19.5184 16.4426 20.2276 15.7171 19.7005L10.9484 16.2358C10.624 16.0001 10.1846 16.0001 9.86016 16.2358L5.09144 19.7005C4.36594 20.2276 3.38978 19.5184 3.66689 18.6655L5.48838 13.0595C5.61231 12.6781 5.47655 12.2603 5.15209 12.0245L0.383377 8.55986C-0.342129 8.03275 0.0307329 6.88521 0.927507 6.88521H6.82196C7.22301 6.88521 7.57845 6.62696 7.70238 6.24554L9.52387 0.639583Z" fill="#FFC107"/>
</svg>
